<svg xmlns="http://www.w3.org/2000/svg" width="224" height="272" viewBox="0 0 224 272">
<rect width="224" height="272" fill="#0D0D0D"/>
<rect x="2" y="2" width="220" height="268" rx="6" fill="none" stroke="#E74C3C" stroke-width="2" opacity="0.6"/>
<rect x="17" y="17" width="22" height="22" rx="2" fill="#1A1A2E"/>
<rect x="41" y="17" width="22" height="22" rx="2" fill="#1A1A2E"/>
<rect x="65" y="17" width="22" height="22" rx="2" fill="#1A1A2E"/>
<rect x="89" y="17" width="22" height="22" rx="2" fill="#1A1A2E"/>
<rect x="113" y="17" width="22" height="22" rx="2" fill="#1A1A2E"/>
<rect x="137" y="17" width="22" height="22" rx="2" fill="#1A1A2E"/>
<rect x="161" y="17" width="22" height="22" rx="2" fill="#1A1A2E"/>
<rect x="185" y="17" width="22" height="22" rx="2" fill="#1A1A2E"/>
<rect x="17" y="41" width="22" height="22" rx="2" fill="#1A1A2E"/>
<rect x="41" y="41" width="22" height="22" rx="2" fill="#1A1A2E"/>
<rect x="65" y="41" width="22" height="22" rx="2" fill="#1A1A2E"/>
<rect x="89" y="41" width="22" height="22" rx="2" fill="#1A1A2E"/>
<rect x="113" y="41" width="22" height="22" rx="2" fill="#1A1A2E"/>
<rect x="137" y="41" width="22" height="22" rx="2" fill="#1A1A2E"/>
<rect x="161" y="41" width="22" height="22" rx="2" fill="#1A1A2E"/>
<rect x="185" y="41" width="22" height="22" rx="2" fill="#1A1A2E"/>
<rect x="17" y="65" width="22" height="22" rx="2" fill="#1A1A2E"/>
<rect x="41" y="65" width="22" height="22" rx="2" fill="#1A1A2E"/>
<rect x="65" y="65" width="22" height="22" rx="2" fill="#1A1A2E"/>
<rect x="89" y="65" width="22" height="22" rx="2" fill="#1A1A2E"/>
<rect x="113" y="65" width="22" height="22" rx="2" fill="#1A1A2E"/>
<rect x="137" y="65" width="22" height="22" rx="2" fill="#1A1A2E"/>
<rect x="161" y="65" width="22" height="22" rx="2" fill="#1A1A2E"/>
<rect x="185" y="65" width="22" height="22" rx="2" fill="#1A1A2E"/>
<rect x="17" y="89" width="22" height="22" rx="2" fill="#1A1A2E"/>
<rect x="41" y="89" width="22" height="22" rx="2" fill="#1A1A2E"/>
<rect x="65" y="89" width="22" height="22" rx="2" fill="#1A1A2E"/>
<rect x="89" y="89" width="22" height="22" rx="2" fill="#1A1A2E"/>
<rect x="113" y="89" width="22" height="22" rx="2" fill="#1A1A2E"/>
<rect x="137" y="89" width="22" height="22" rx="2" fill="#1A1A2E"/>
<rect x="161" y="89" width="22" height="22" rx="2" fill="#1A1A2E"/>
<rect x="185" y="89" width="22" height="22" rx="2" fill="#1A1A2E"/>
<rect x="17" y="113" width="22" height="22" rx="2" fill="#1A1A2E"/>
<rect x="41" y="113" width="22" height="22" rx="2" fill="#1A1A2E"/>
<rect x="65" y="113" width="22" height="22" rx="2" fill="#1A1A2E"/>
<rect x="89" y="113" width="22" height="22" rx="2" fill="#1A1A2E"/>
<rect x="113" y="113" width="22" height="22" rx="2" fill="#1A1A2E"/>
<rect x="137" y="113" width="22" height="22" rx="2" fill="#1A1A2E"/>
<rect x="161" y="113" width="22" height="22" rx="2" fill="#1A1A2E"/>
<rect x="185" y="113" width="22" height="22" rx="2" fill="#1A1A2E"/>
<rect x="17" y="137" width="22" height="22" rx="2" fill="#1A1A2E"/>
<rect x="41" y="137" width="22" height="22" rx="2" fill="#1A1A2E"/>
<rect x="65" y="137" width="22" height="22" rx="2" fill="#1A1A2E"/>
<rect x="89" y="137" width="22" height="22" rx="2" fill="#1A1A2E"/>
<rect x="113" y="137" width="22" height="22" rx="2" fill="#1A1A2E"/>
<rect x="137" y="137" width="22" height="22" rx="2" fill="#1A1A2E"/>
<rect x="161" y="137" width="22" height="22" rx="2" fill="#1A1A2E"/>
<rect x="185" y="137" width="22" height="22" rx="2" fill="#1A1A2E"/>
<rect x="17" y="161" width="22" height="22" rx="2" fill="#1A1A2E"/>
<rect x="41" y="161" width="22" height="22" rx="2" fill="#1A1A2E"/>
<rect x="65" y="161" width="22" height="22" rx="2" fill="#1A1A2E"/>
<rect x="89" y="161" width="22" height="22" rx="2" fill="#1A1A2E"/>
<rect x="113" y="161" width="22" height="22" rx="2" fill="#1A1A2E"/>
<rect x="137" y="161" width="22" height="22" rx="2" fill="#1A1A2E"/>
<rect x="161" y="161" width="22" height="22" rx="2" fill="#1A1A2E"/>
<rect x="185" y="161" width="22" height="22" rx="2" fill="#1A1A2E"/>
<rect x="17" y="185" width="22" height="22" rx="2" fill="#1A1A2E"/>
<rect x="41" y="185" width="22" height="22" rx="2" fill="#1A1A2E"/>
<rect x="65" y="185" width="22" height="22" rx="2" fill="#E8E8E8"/>
<rect x="89" y="185" width="22" height="22" rx="2" fill="#E8E8E8"/>
<rect x="113" y="185" width="22" height="22" rx="2" fill="#1A1A2E"/>
<rect x="137" y="185" width="22" height="22" rx="2" fill="#E8E8E8"/>
<rect x="161" y="185" width="22" height="22" rx="2" fill="#E8E8E8"/>
<rect x="185" y="185" width="22" height="22" rx="2" fill="#1A1A2E"/>
<circle cx="112" cy="112" r="12" fill="none" stroke="#E74C3C" stroke-width="1.5" opacity="0.35"/>
<circle cx="112" cy="112" r="6" fill="#E74C3C" opacity="0.85"/>
<rect x="16" y="216" width="192" height="4" rx="2" fill="#1A1A2E"/>
<rect x="16" y="216" width="0" height="4" rx="2" fill="#E74C3C"/>
<text x="16" y="232" font-family="monospace" font-size="9" fill="#888">
  b62=0000000000s  spoke=0  world=4n  slot=0
</text>
<text x="16" y="243" font-family="monospace" font-size="9" fill="#555">
  0x0000000000000036
</text>
</svg>