<svg xmlns="http://www.w3.org/2000/svg" width="60" height="684" style="background:#07070f"><g transform="translate(0,0)"><svg xmlns="http://www.w3.org/2000/svg" width="60" height="60" viewBox="0 0 60 60" style="flex-shrink: 0;"><circle cx="30" cy="30" r="28" fill="#080814" stroke="#2ECC71" stroke-width="0.5" opacity="0.2"/><path d="M23,30 L20.5,30 A9.5,9.5,0,0,1,22.955144932208462,23.626616512886436 L24.809054160574657,25.303822693705794 A7,7,0,0,0,23,30" fill="#2ECC71" opacity="0.54"/><path d="M30,20 L30,17.5 A12.5,12.5,0,0,1,38.3860309040968,20.730453858169028 L36.70882472327744,22.584363086535223 A10,10,0,0,0,30,20" fill="#2ECC71" opacity="0.58"/><path d="M37.071067811865476,22.928932188134524 L38.838834764831844,21.161165235168156 A12.5,12.5,0,0,1,42.48437825493708,29.375260384116523 L39.987502603949665,29.500208307293217 A10,10,0,0,0,37.071067811865476,22.928932188134524" fill="#2ECC71" opacity="0.58"/><path d="M30,40 L30,42.5 A12.5,12.5,0,0,1,21.6139690959032,39.26954614183097 L23.291175276722562,37.41563691346478 A10,10,0,0,0,30,40" fill="#2ECC71" opacity="0.58"/><path d="M20,30 L17.5,30 A12.5,12.5,0,0,1,20.730453858169028,21.6139690959032 L22.584363086535223,23.291175276722562 A10,10,0,0,0,20,30" fill="#2ECC71" opacity="0.58"/><path d="M20.807611844574883,39.19238815542512 L19.039844891608514,40.96015510839149 A15.5,15.5,0,0,1,14.519370963878023,30.774677123695515 L17.016246614865437,30.649729200518816 A13,13,0,0,0,20.807611844574883,39.19238815542512" fill="#2ECC71" opacity="0.62"/><path d="M17,30 L14.5,30.000000000000004 A15.5,15.5,0,0,1,18.505762784129594,19.601321678919973 L20.35967201249579,21.27852785973933 A13,13,0,0,0,17,30" fill="#2ECC71" opacity="0.62"/><path d="M20.80761184457488,20.807611844574883 L19.03984489160851,19.039844891608514 A15.5,15.5,0,0,1,29.225322876304485,14.519370963878023 L29.35027079948118,17.016246614865437 A13,13,0,0,0,20.80761184457488,20.807611844574883" fill="#2ECC71" opacity="0.62"/><path d="M30,14 L30,11.5 A18.5,18.5,0,0,1,42.41132573806326,16.28107171009016 L40.7341195572439,18.13498093845636 A16,16,0,0,0,30,14" fill="#2ECC71" opacity="0.66"/><path d="M41.31370849898476,18.68629150101524 L43.08147545195113,16.91852454804887 A18.5,18.5,0,0,1,48.47687981730688,29.07538536849245 L45.98000416631946,29.200333291669146 A16,16,0,0,0,41.31370849898476,18.68629150101524" fill="#2ECC71" opacity="0.66"/><path d="M30,46 L30,48.5 A18.5,18.5,0,0,1,17.588674261936738,43.71892828990984 L19.2658804427561,41.86501906154364 A16,16,0,0,0,30,46" fill="#2ECC71" opacity="0.66"/><path d="M18.68629150101524,41.31370849898476 L16.91852454804887,43.08147545195113 A18.5,18.5,0,0,1,11.523120182693123,30.92461463150755 L14.01999583368054,30.799666708330854 A16,16,0,0,0,18.68629150101524,41.31370849898476" fill="#2ECC71" opacity="0.66"/><path d="M18.686291501015237,18.68629150101524 L16.918524548048868,16.91852454804887 A18.5,18.5,0,0,1,29.07538536849245,11.523120182693123 L29.200333291669146,14.01999583368054 A16,16,0,0,0,18.686291501015237,18.68629150101524" fill="#2ECC71" opacity="0.66"/><path d="M30,11 L30,8.5 A21.5,21.5,0,0,1,44.42397315504649,14.05638063605073 L42.74676697422713,15.910289864416924 A19,19,0,0,0,30,11" fill="#2ECC71" opacity="0.7"/><path d="M43.435028842544405,16.5649711574556 L45.202795795510774,14.79720420448923 A21.5,21.5,0,0,1,51.47313059849178,28.925447860680414 L48.97625494750436,29.050395783857113 A19,19,0,0,0,43.435028842544405,16.5649711574556" fill="#2ECC71" opacity="0.7"/><path d="M49,30 L51.5,30 A21.5,21.5,0,0,1,45.943619363949274,44.42397315504649 L44.089710135583076,42.74676697422713 A19,19,0,0,0,49,30" fill="#2ECC71" opacity="0.7"/><path d="M52,30 L54.5,30 A24.5,24.5,0,0,1,48.16831043798871,46.436620572029724 L46.31440120962252,44.75941439121036 A22,22,0,0,0,52,30" fill="#2ECC71" opacity="0.74"/><path d="M45.55634918610404,45.55634918610404 L47.32411613907041,47.32411613907041 A24.5,24.5,0,0,1,31.224489647131623,54.469381379676676 L31.099541723954925,51.972505728689256 A22,22,0,0,0,45.55634918610404,45.55634918610404" fill="#2ECC71" opacity="0.74"/><path d="M14.443650813895957,45.55634918610404 L12.675883860929588,47.32411613907041 A24.5,24.5,0,0,1,5.530618620323327,31.22448964713162 L8.027494271310744,31.09954172395492 A22,22,0,0,0,14.443650813895957,45.55634918610404" fill="#2ECC71" opacity="0.74"/><path d="M8,30.000000000000004 L5.5,30.000000000000004 A24.5,24.5,0,0,1,11.831689562011295,13.563379427970276 L13.68559879037749,15.240585608789637 A22,22,0,0,0,8,30.000000000000004" fill="#2ECC71" opacity="0.74"/><path d="M14.443650813895951,14.443650813895957 L12.67588386092958,12.675883860929588 A24.5,24.5,0,0,1,28.77551035286838,5.530618620323327 L28.900458276045075,8.027494271310744 A22,22,0,0,0,14.443650813895951,14.443650813895957" fill="#2ECC71" opacity="0.74"/><path d="M30,5 L30,2.5 A27.5,27.5,0,0,1,48.44926798901295,9.606998487971865 L46.7720618081936,11.460907716338056 A25,25,0,0,0,30,5" fill="#2ECC71" opacity="0.78"/><path d="M55,30 L57.5,30 A27.5,27.5,0,0,1,50.393001512028135,48.44926798901295 L48.539092283661944,46.7720618081936 A25,25,0,0,0,55,30" fill="#2ECC71" opacity="0.78"/><path d="M47.67766952966369,47.67766952966369 L49.44543648263006,49.44543648263006 A27.5,27.5,0,0,1,31.374427154943657,57.465632160861574 L31.249479231766962,54.968756509874154 A25,25,0,0,0,47.67766952966369,47.67766952966369" fill="#2ECC71" opacity="0.78"/><path d="M12.322330470336315,47.67766952966369 L10.554563517369946,49.44543648263006 A27.5,27.5,0,0,1,2.534367839138426,31.374427154943653 L5.031243490125842,31.24947923176696 A25,25,0,0,0,12.322330470336315,47.67766952966369" fill="#2ECC71" opacity="0.78"/><path d="M12.322330470336308,12.322330470336315 L10.554563517369939,10.554563517369946 A27.5,27.5,0,0,1,28.625572845056347,2.534367839138426 L28.75052076823304,5.031243490125842 A25,25,0,0,0,12.322330470336308,12.322330470336315" fill="#2ECC71" opacity="0.78"/><rect x="26" y="26" width="8" height="8" fill="#2ECC71" opacity="0.9"/></svg></g><g transform="translate(0,76)"><svg xmlns="http://www.w3.org/2000/svg" width="60" height="60" viewBox="0 0 60 60" style="flex-shrink: 0;"><circle cx="30" cy="30" r="28" fill="#080814" stroke="#2ECC71" stroke-width="0.5" opacity="0.2"/><path d="M30,37 L30,39.5 A9.5,9.5,0,0,1,23.626616512886432,37.04485506779154 L25.303822693705794,35.190945839425346 A7,7,0,0,0,30,37" fill="#2ECC71" opacity="0.54"/><path d="M23,30 L20.5,30 A9.5,9.5,0,0,1,22.955144932208462,23.626616512886436 L24.809054160574657,25.303822693705794 A7,7,0,0,0,23,30" fill="#2ECC71" opacity="0.54"/><path d="M25.050252531694166,25.05025253169417 L23.282485578727798,23.2824855787278 A9.5,9.5,0,0,1,29.525197891928556,20.51187252624782 L29.65014581510525,23.008748177235237 A7,7,0,0,0,25.050252531694166,25.05025253169417" fill="#2ECC71" opacity="0.54"/><path d="M30,20 L30,17.5 A12.5,12.5,0,0,1,38.3860309040968,20.730453858169028 L36.70882472327744,22.584363086535223 A10,10,0,0,0,30,20" fill="#2ECC71" opacity="0.58"/><path d="M37.071067811865476,22.928932188134524 L38.838834764831844,21.161165235168156 A12.5,12.5,0,0,1,42.48437825493708,29.375260384116523 L39.987502603949665,29.500208307293217 A10,10,0,0,0,37.071067811865476,22.928932188134524" fill="#2ECC71" opacity="0.58"/><path d="M40,30 L42.5,30 A12.5,12.5,0,0,1,39.26954614183097,38.3860309040968 L37.41563691346478,36.70882472327744 A10,10,0,0,0,40,30" fill="#2ECC71" opacity="0.58"/><path d="M30,17 L30,14.5 A15.5,15.5,0,0,1,40.39867832108003,18.505762784129594 L38.72147214026067,20.35967201249579 A13,13,0,0,0,30,17" fill="#2ECC71" opacity="0.62"/><path d="M39.19238815542512,20.807611844574883 L40.96015510839149,19.039844891608514 A15.5,15.5,0,0,1,45.480629036121975,29.225322876304485 L42.98375338513456,29.35027079948118 A13,13,0,0,0,39.19238815542512,20.807611844574883" fill="#2ECC71" opacity="0.62"/><path d="M20.807611844574883,39.19238815542512 L19.039844891608514,40.96015510839149 A15.5,15.5,0,0,1,14.519370963878023,30.774677123695515 L17.016246614865437,30.649729200518816 A13,13,0,0,0,20.807611844574883,39.19238815542512" fill="#2ECC71" opacity="0.62"/><path d="M41.31370849898476,18.68629150101524 L43.08147545195113,16.91852454804887 A18.5,18.5,0,0,1,48.47687981730688,29.07538536849245 L45.98000416631946,29.200333291669146 A16,16,0,0,0,41.31370849898476,18.68629150101524" fill="#2ECC71" opacity="0.66"/><path d="M46,30 L48.5,30 A18.5,18.5,0,0,1,43.71892828990984,42.41132573806326 L41.86501906154365,40.7341195572439 A16,16,0,0,0,46,30" fill="#2ECC71" opacity="0.66"/><path d="M41.31370849898476,41.31370849898476 L43.08147545195113,43.08147545195113 A18.5,18.5,0,0,1,30.924614631507552,48.47687981730688 L30.799666708330854,45.98000416631946 A16,16,0,0,0,41.31370849898476,41.31370849898476" fill="#2ECC71" opacity="0.66"/><path d="M30,46 L30,48.5 A18.5,18.5,0,0,1,17.588674261936738,43.71892828990984 L19.2658804427561,41.86501906154364 A16,16,0,0,0,30,46" fill="#2ECC71" opacity="0.66"/><path d="M18.68629150101524,41.31370849898476 L16.91852454804887,43.08147545195113 A18.5,18.5,0,0,1,11.523120182693123,30.92461463150755 L14.01999583368054,30.799666708330854 A16,16,0,0,0,18.68629150101524,41.31370849898476" fill="#2ECC71" opacity="0.66"/><path d="M14,30.000000000000004 L11.5,30.000000000000004 A18.5,18.5,0,0,1,16.28107171009016,17.588674261936738 L18.13498093845636,19.2658804427561 A16,16,0,0,0,14,30.000000000000004" fill="#2ECC71" opacity="0.66"/><path d="M18.686291501015237,18.68629150101524 L16.918524548048868,16.91852454804887 A18.5,18.5,0,0,1,29.07538536849245,11.523120182693123 L29.200333291669146,14.01999583368054 A16,16,0,0,0,18.686291501015237,18.68629150101524" fill="#2ECC71" opacity="0.66"/><path d="M30,11 L30,8.5 A21.5,21.5,0,0,1,44.42397315504649,14.05638063605073 L42.74676697422713,15.910289864416924 A19,19,0,0,0,30,11" fill="#2ECC71" opacity="0.7"/><path d="M43.435028842544405,43.4350288425444 L45.202795795510774,45.20279579551077 A21.5,21.5,0,0,1,31.074552139319586,51.47313059849178 L30.94960421614289,48.97625494750436 A19,19,0,0,0,43.435028842544405,43.4350288425444" fill="#2ECC71" opacity="0.7"/><path d="M16.5649711574556,43.435028842544405 L14.79720420448923,45.202795795510774 A21.5,21.5,0,0,1,8.526869401508225,31.074552139319582 L11.023745052495642,30.949604216142887 A19,19,0,0,0,16.5649711574556,43.435028842544405" fill="#2ECC71" opacity="0.7"/><path d="M16.564971157455595,16.5649711574556 L14.797204204489224,14.79720420448923 A21.5,21.5,0,0,1,28.925447860680414,8.526869401508225 L29.050395783857113,11.023745052495642 A19,19,0,0,0,16.564971157455595,16.5649711574556" fill="#2ECC71" opacity="0.7"/><path d="M45.55634918610404,14.443650813895957 L47.32411613907041,12.675883860929588 A24.5,24.5,0,0,1,54.469381379676676,28.77551035286838 L51.972505728689256,28.900458276045075 A22,22,0,0,0,45.55634918610404,14.443650813895957" fill="#2ECC71" opacity="0.74"/><path d="M14.443650813895957,45.55634918610404 L12.675883860929588,47.32411613907041 A24.5,24.5,0,0,1,5.530618620323327,31.22448964713162 L8.027494271310744,31.09954172395492 A22,22,0,0,0,14.443650813895957,45.55634918610404" fill="#2ECC71" opacity="0.74"/><path d="M30,5 L30,2.5 A27.5,27.5,0,0,1,48.44926798901295,9.606998487971865 L46.7720618081936,11.460907716338056 A25,25,0,0,0,30,5" fill="#2ECC71" opacity="0.78"/><path d="M47.67766952966369,12.322330470336315 L49.44543648263006,10.554563517369946 A27.5,27.5,0,0,1,57.465632160861574,28.625572845056347 L54.968756509874154,28.75052076823304 A25,25,0,0,0,47.67766952966369,12.322330470336315" fill="#2ECC71" opacity="0.78"/><path d="M47.67766952966369,47.67766952966369 L49.44543648263006,49.44543648263006 A27.5,27.5,0,0,1,31.374427154943657,57.465632160861574 L31.249479231766962,54.968756509874154 A25,25,0,0,0,47.67766952966369,47.67766952966369" fill="#2ECC71" opacity="0.78"/><path d="M12.322330470336315,47.67766952966369 L10.554563517369946,49.44543648263006 A27.5,27.5,0,0,1,2.534367839138426,31.374427154943653 L5.031243490125842,31.24947923176696 A25,25,0,0,0,12.322330470336315,47.67766952966369" fill="#2ECC71" opacity="0.78"/><path d="M5,30.000000000000004 L2.5,30.000000000000004 A27.5,27.5,0,0,1,9.606998487971865,11.550732010987048 L11.460907716338056,13.227938191806405 A25,25,0,0,0,5,30.000000000000004" fill="#2ECC71" opacity="0.78"/><path d="M12.322330470336308,12.322330470336315 L10.554563517369939,10.554563517369946 A27.5,27.5,0,0,1,28.625572845056347,2.534367839138426 L28.75052076823304,5.031243490125842 A25,25,0,0,0,12.322330470336308,12.322330470336315" fill="#2ECC71" opacity="0.78"/><circle cx="30" cy="30" r="4" fill="#2ECC71" opacity="0.9"/></svg></g><g transform="translate(0,152)"><svg xmlns="http://www.w3.org/2000/svg" width="60" height="60" viewBox="0 0 60 60" style="flex-shrink: 0;"><circle cx="30" cy="30" r="28" fill="#080814" stroke="#9B59B6" stroke-width="0.5" opacity="0.2"/><path d="M30,20 L30,17.5 A12.5,12.5,0,0,1,38.3860309040968,20.730453858169028 L36.70882472327744,22.584363086535223 A10,10,0,0,0,30,20" fill="#9B59B6" opacity="0.58"/><path d="M40,30 L42.5,30 A12.5,12.5,0,0,1,39.26954614183097,38.3860309040968 L37.41563691346478,36.70882472327744 A10,10,0,0,0,40,30" fill="#9B59B6" opacity="0.58"/><path d="M30,40 L30,42.5 A12.5,12.5,0,0,1,21.6139690959032,39.26954614183097 L23.291175276722562,37.41563691346478 A10,10,0,0,0,30,40" fill="#9B59B6" opacity="0.58"/><path d="M22.928932188134524,37.071067811865476 L21.161165235168156,38.838834764831844 A12.5,12.5,0,0,1,17.515621745062923,30.624739615883477 L20.012497396050335,30.499791692706783 A10,10,0,0,0,22.928932188134524,37.071067811865476" fill="#9B59B6" opacity="0.58"/><path d="M22.928932188134524,22.928932188134524 L21.161165235168156,21.161165235168156 A12.5,12.5,0,0,1,29.375260384116523,17.515621745062923 L29.500208307293217,20.012497396050335 A10,10,0,0,0,22.928932188134524,22.928932188134524" fill="#9B59B6" opacity="0.58"/><path d="M30,17 L30,14.5 A15.5,15.5,0,0,1,40.39867832108003,18.505762784129594 L38.72147214026067,20.35967201249579 A13,13,0,0,0,30,17" fill="#9B59B6" opacity="0.62"/><path d="M43,30 L45.5,30 A15.5,15.5,0,0,1,41.494237215870406,40.39867832108003 L39.64032798750421,38.72147214026067 A13,13,0,0,0,43,30" fill="#9B59B6" opacity="0.62"/><path d="M39.19238815542512,39.19238815542512 L40.96015510839149,40.96015510839149 A15.5,15.5,0,0,1,30.774677123695515,45.480629036121975 L30.64972920051882,42.98375338513456 A13,13,0,0,0,39.19238815542512,39.19238815542512" fill="#9B59B6" opacity="0.62"/><path d="M30,43 L30,45.5 A15.5,15.5,0,0,1,19.60132167891997,41.494237215870406 L21.278527859739327,39.64032798750421 A13,13,0,0,0,30,43" fill="#9B59B6" opacity="0.62"/><path d="M20.80761184457488,20.807611844574883 L19.03984489160851,19.039844891608514 A15.5,15.5,0,0,1,29.225322876304485,14.519370963878023 L29.35027079948118,17.016246614865437 A13,13,0,0,0,20.80761184457488,20.807611844574883" fill="#9B59B6" opacity="0.62"/><path d="M41.31370849898476,18.68629150101524 L43.08147545195113,16.91852454804887 A18.5,18.5,0,0,1,48.47687981730688,29.07538536849245 L45.98000416631946,29.200333291669146 A16,16,0,0,0,41.31370849898476,18.68629150101524" fill="#9B59B6" opacity="0.66"/><path d="M46,30 L48.5,30 A18.5,18.5,0,0,1,43.71892828990984,42.41132573806326 L41.86501906154365,40.7341195572439 A16,16,0,0,0,46,30" fill="#9B59B6" opacity="0.66"/><path d="M41.31370849898476,41.31370849898476 L43.08147545195113,43.08147545195113 A18.5,18.5,0,0,1,30.924614631507552,48.47687981730688 L30.799666708330854,45.98000416631946 A16,16,0,0,0,41.31370849898476,41.31370849898476" fill="#9B59B6" opacity="0.66"/><path d="M18.686291501015237,18.68629150101524 L16.918524548048868,16.91852454804887 A18.5,18.5,0,0,1,29.07538536849245,11.523120182693123 L29.200333291669146,14.01999583368054 A16,16,0,0,0,18.686291501015237,18.68629150101524" fill="#9B59B6" opacity="0.66"/><path d="M43.435028842544405,16.5649711574556 L45.202795795510774,14.79720420448923 A21.5,21.5,0,0,1,51.47313059849178,28.925447860680414 L48.97625494750436,29.050395783857113 A19,19,0,0,0,43.435028842544405,16.5649711574556" fill="#9B59B6" opacity="0.7"/><path d="M43.435028842544405,43.4350288425444 L45.202795795510774,45.20279579551077 A21.5,21.5,0,0,1,31.074552139319586,51.47313059849178 L30.94960421614289,48.97625494750436 A19,19,0,0,0,43.435028842544405,43.4350288425444" fill="#9B59B6" opacity="0.7"/><path d="M16.564971157455595,16.5649711574556 L14.797204204489224,14.79720420448923 A21.5,21.5,0,0,1,28.925447860680414,8.526869401508225 L29.050395783857113,11.023745052495642 A19,19,0,0,0,16.564971157455595,16.5649711574556" fill="#9B59B6" opacity="0.7"/><path d="M30,8 L30,5.5 A24.5,24.5,0,0,1,46.436620572029724,11.831689562011295 L44.75941439121036,13.68559879037749 A22,22,0,0,0,30,8" fill="#9B59B6" opacity="0.74"/><path d="M45.55634918610404,14.443650813895957 L47.32411613907041,12.675883860929588 A24.5,24.5,0,0,1,54.469381379676676,28.77551035286838 L51.972505728689256,28.900458276045075 A22,22,0,0,0,45.55634918610404,14.443650813895957" fill="#9B59B6" opacity="0.74"/><path d="M52,30 L54.5,30 A24.5,24.5,0,0,1,48.16831043798871,46.436620572029724 L46.31440120962252,44.75941439121036 A22,22,0,0,0,52,30" fill="#9B59B6" opacity="0.74"/><path d="M45.55634918610404,45.55634918610404 L47.32411613907041,47.32411613907041 A24.5,24.5,0,0,1,31.224489647131623,54.469381379676676 L31.099541723954925,51.972505728689256 A22,22,0,0,0,45.55634918610404,45.55634918610404" fill="#9B59B6" opacity="0.74"/><path d="M30,52 L30,54.5 A24.5,24.5,0,0,1,13.563379427970276,48.16831043798871 L15.240585608789635,46.31440120962251 A22,22,0,0,0,30,52" fill="#9B59B6" opacity="0.74"/><path d="M8,30.000000000000004 L5.5,30.000000000000004 A24.5,24.5,0,0,1,11.831689562011295,13.563379427970276 L13.68559879037749,15.240585608789637 A22,22,0,0,0,8,30.000000000000004" fill="#9B59B6" opacity="0.74"/><path d="M30,5 L30,2.5 A27.5,27.5,0,0,1,48.44926798901295,9.606998487971865 L46.7720618081936,11.460907716338056 A25,25,0,0,0,30,5" fill="#9B59B6" opacity="0.78"/><path d="M55,30 L57.5,30 A27.5,27.5,0,0,1,50.393001512028135,48.44926798901295 L48.539092283661944,46.7720618081936 A25,25,0,0,0,55,30" fill="#9B59B6" opacity="0.78"/><path d="M5,30.000000000000004 L2.5,30.000000000000004 A27.5,27.5,0,0,1,9.606998487971865,11.550732010987048 L11.460907716338056,13.227938191806405 A25,25,0,0,0,5,30.000000000000004" fill="#9B59B6" opacity="0.78"/><path d="M12.322330470336308,12.322330470336315 L10.554563517369939,10.554563517369946 A27.5,27.5,0,0,1,28.625572845056347,2.534367839138426 L28.75052076823304,5.031243490125842 A25,25,0,0,0,12.322330470336308,12.322330470336315" fill="#9B59B6" opacity="0.78"/><polygon points="30,26 26.56,32 33.44,32" fill="#9B59B6" opacity="0.9"/></svg></g><g transform="translate(0,228)"><svg xmlns="http://www.w3.org/2000/svg" width="60" height="60" viewBox="0 0 60 60" style="flex-shrink: 0;"><circle cx="30" cy="30" r="28" fill="#080814" stroke="#9B59B6" stroke-width="0.5" opacity="0.2"/><path d="M34.94974746830583,34.94974746830583 L36.7175144212722,36.7175144212722 A9.5,9.5,0,0,1,30.474802108071444,39.48812747375218 L30.34985418489475,36.99125182276477 A7,7,0,0,0,34.94974746830583,34.94974746830583" fill="#9B59B6" opacity="0.54"/><path d="M23,30 L20.5,30 A9.5,9.5,0,0,1,22.955144932208462,23.626616512886436 L24.809054160574657,25.303822693705794 A7,7,0,0,0,23,30" fill="#9B59B6" opacity="0.54"/><path d="M25.050252531694166,25.05025253169417 L23.282485578727798,23.2824855787278 A9.5,9.5,0,0,1,29.525197891928556,20.51187252624782 L29.65014581510525,23.008748177235237 A7,7,0,0,0,25.050252531694166,25.05025253169417" fill="#9B59B6" opacity="0.54"/><path d="M37.071067811865476,22.928932188134524 L38.838834764831844,21.161165235168156 A12.5,12.5,0,0,1,42.48437825493708,29.375260384116523 L39.987502603949665,29.500208307293217 A10,10,0,0,0,37.071067811865476,22.928932188134524" fill="#9B59B6" opacity="0.58"/><path d="M40,30 L42.5,30 A12.5,12.5,0,0,1,39.26954614183097,38.3860309040968 L37.41563691346478,36.70882472327744 A10,10,0,0,0,40,30" fill="#9B59B6" opacity="0.58"/><path d="M37.071067811865476,37.071067811865476 L38.838834764831844,38.838834764831844 A12.5,12.5,0,0,1,30.62473961588348,42.48437825493708 L30.499791692706783,39.987502603949665 A10,10,0,0,0,37.071067811865476,37.071067811865476" fill="#9B59B6" opacity="0.58"/><path d="M30,40 L30,42.5 A12.5,12.5,0,0,1,21.6139690959032,39.26954614183097 L23.291175276722562,37.41563691346478 A10,10,0,0,0,30,40" fill="#9B59B6" opacity="0.58"/><path d="M20,30 L17.5,30 A12.5,12.5,0,0,1,20.730453858169028,21.6139690959032 L22.584363086535223,23.291175276722562 A10,10,0,0,0,20,30" fill="#9B59B6" opacity="0.58"/><path d="M43,30 L45.5,30 A15.5,15.5,0,0,1,41.494237215870406,40.39867832108003 L39.64032798750421,38.72147214026067 A13,13,0,0,0,43,30" fill="#9B59B6" opacity="0.62"/><path d="M20.80761184457488,20.807611844574883 L19.03984489160851,19.039844891608514 A15.5,15.5,0,0,1,29.225322876304485,14.519370963878023 L29.35027079948118,17.016246614865437 A13,13,0,0,0,20.80761184457488,20.807611844574883" fill="#9B59B6" opacity="0.62"/><path d="M41.31370849898476,41.31370849898476 L43.08147545195113,43.08147545195113 A18.5,18.5,0,0,1,30.924614631507552,48.47687981730688 L30.799666708330854,45.98000416631946 A16,16,0,0,0,41.31370849898476,41.31370849898476" fill="#9B59B6" opacity="0.66"/><path d="M30,46 L30,48.5 A18.5,18.5,0,0,1,17.588674261936738,43.71892828990984 L19.2658804427561,41.86501906154364 A16,16,0,0,0,30,46" fill="#9B59B6" opacity="0.66"/><path d="M18.68629150101524,41.31370849898476 L16.91852454804887,43.08147545195113 A18.5,18.5,0,0,1,11.523120182693123,30.92461463150755 L14.01999583368054,30.799666708330854 A16,16,0,0,0,18.68629150101524,41.31370849898476" fill="#9B59B6" opacity="0.66"/><path d="M14,30.000000000000004 L11.5,30.000000000000004 A18.5,18.5,0,0,1,16.28107171009016,17.588674261936738 L18.13498093845636,19.2658804427561 A16,16,0,0,0,14,30.000000000000004" fill="#9B59B6" opacity="0.66"/><path d="M43.435028842544405,16.5649711574556 L45.202795795510774,14.79720420448923 A21.5,21.5,0,0,1,51.47313059849178,28.925447860680414 L48.97625494750436,29.050395783857113 A19,19,0,0,0,43.435028842544405,16.5649711574556" fill="#9B59B6" opacity="0.7"/><path d="M49,30 L51.5,30 A21.5,21.5,0,0,1,45.943619363949274,44.42397315504649 L44.089710135583076,42.74676697422713 A19,19,0,0,0,49,30" fill="#9B59B6" opacity="0.7"/><path d="M30,49 L30,51.5 A21.5,21.5,0,0,1,15.576026844953507,45.94361936394927 L17.253233025772865,44.089710135583076 A19,19,0,0,0,30,49" fill="#9B59B6" opacity="0.7"/><path d="M16.564971157455595,16.5649711574556 L14.797204204489224,14.79720420448923 A21.5,21.5,0,0,1,28.925447860680414,8.526869401508225 L29.050395783857113,11.023745052495642 A19,19,0,0,0,16.564971157455595,16.5649711574556" fill="#9B59B6" opacity="0.7"/><path d="M30,8 L30,5.5 A24.5,24.5,0,0,1,46.436620572029724,11.831689562011295 L44.75941439121036,13.68559879037749 A22,22,0,0,0,30,8" fill="#9B59B6" opacity="0.74"/><path d="M45.55634918610404,45.55634918610404 L47.32411613907041,47.32411613907041 A24.5,24.5,0,0,1,31.224489647131623,54.469381379676676 L31.099541723954925,51.972505728689256 A22,22,0,0,0,45.55634918610404,45.55634918610404" fill="#9B59B6" opacity="0.74"/><path d="M47.67766952966369,12.322330470336315 L49.44543648263006,10.554563517369946 A27.5,27.5,0,0,1,57.465632160861574,28.625572845056347 L54.968756509874154,28.75052076823304 A25,25,0,0,0,47.67766952966369,12.322330470336315" fill="#9B59B6" opacity="0.78"/><path d="M55,30 L57.5,30 A27.5,27.5,0,0,1,50.393001512028135,48.44926798901295 L48.539092283661944,46.7720618081936 A25,25,0,0,0,55,30" fill="#9B59B6" opacity="0.78"/><path d="M47.67766952966369,47.67766952966369 L49.44543648263006,49.44543648263006 A27.5,27.5,0,0,1,31.374427154943657,57.465632160861574 L31.249479231766962,54.968756509874154 A25,25,0,0,0,47.67766952966369,47.67766952966369" fill="#9B59B6" opacity="0.78"/><path d="M30,55 L30,57.5 A27.5,27.5,0,0,1,11.550732010987044,50.393001512028135 L13.227938191806402,48.539092283661944 A25,25,0,0,0,30,55" fill="#9B59B6" opacity="0.78"/><path d="M12.322330470336315,47.67766952966369 L10.554563517369946,49.44543648263006 A27.5,27.5,0,0,1,2.534367839138426,31.374427154943653 L5.031243490125842,31.24947923176696 A25,25,0,0,0,12.322330470336315,47.67766952966369" fill="#9B59B6" opacity="0.78"/><path d="M12.322330470336308,12.322330470336315 L10.554563517369939,10.554563517369946 A27.5,27.5,0,0,1,28.625572845056347,2.534367839138426 L28.75052076823304,5.031243490125842 A25,25,0,0,0,12.322330470336308,12.322330470336315" fill="#9B59B6" opacity="0.78"/><circle cx="30" cy="30" r="4" fill="#9B59B6" opacity="0.9"/></svg></g><g transform="translate(0,304)"><svg xmlns="http://www.w3.org/2000/svg" width="60" height="60" viewBox="0 0 60 60" style="flex-shrink: 0;"><circle cx="30" cy="30" r="28" fill="#080814" stroke="#F1C40F" stroke-width="0.5" opacity="0.2"/><path d="M30,37 L30,39.5 A9.5,9.5,0,0,1,23.626616512886432,37.04485506779154 L25.303822693705794,35.190945839425346 A7,7,0,0,0,30,37" fill="#F1C40F" opacity="0.54"/><path d="M25.050252531694166,25.05025253169417 L23.282485578727798,23.2824855787278 A9.5,9.5,0,0,1,29.525197891928556,20.51187252624782 L29.65014581510525,23.008748177235237 A7,7,0,0,0,25.050252531694166,25.05025253169417" fill="#F1C40F" opacity="0.54"/><path d="M30,20 L30,17.5 A12.5,12.5,0,0,1,38.3860309040968,20.730453858169028 L36.70882472327744,22.584363086535223 A10,10,0,0,0,30,20" fill="#F1C40F" opacity="0.58"/><path d="M20,30 L17.5,30 A12.5,12.5,0,0,1,20.730453858169028,21.6139690959032 L22.584363086535223,23.291175276722562 A10,10,0,0,0,20,30" fill="#F1C40F" opacity="0.58"/><path d="M22.928932188134524,22.928932188134524 L21.161165235168156,21.161165235168156 A12.5,12.5,0,0,1,29.375260384116523,17.515621745062923 L29.500208307293217,20.012497396050335 A10,10,0,0,0,22.928932188134524,22.928932188134524" fill="#F1C40F" opacity="0.58"/><path d="M39.19238815542512,20.807611844574883 L40.96015510839149,19.039844891608514 A15.5,15.5,0,0,1,45.480629036121975,29.225322876304485 L42.98375338513456,29.35027079948118 A13,13,0,0,0,39.19238815542512,20.807611844574883" fill="#F1C40F" opacity="0.62"/><path d="M30,43 L30,45.5 A15.5,15.5,0,0,1,19.60132167891997,41.494237215870406 L21.278527859739327,39.64032798750421 A13,13,0,0,0,30,43" fill="#F1C40F" opacity="0.62"/><path d="M20.807611844574883,39.19238815542512 L19.039844891608514,40.96015510839149 A15.5,15.5,0,0,1,14.519370963878023,30.774677123695515 L17.016246614865437,30.649729200518816 A13,13,0,0,0,20.807611844574883,39.19238815542512" fill="#F1C40F" opacity="0.62"/><path d="M17,30 L14.5,30.000000000000004 A15.5,15.5,0,0,1,18.505762784129594,19.601321678919973 L20.35967201249579,21.27852785973933 A13,13,0,0,0,17,30" fill="#F1C40F" opacity="0.62"/><path d="M30,14 L30,11.5 A18.5,18.5,0,0,1,42.41132573806326,16.28107171009016 L40.7341195572439,18.13498093845636 A16,16,0,0,0,30,14" fill="#F1C40F" opacity="0.66"/><path d="M41.31370849898476,18.68629150101524 L43.08147545195113,16.91852454804887 A18.5,18.5,0,0,1,48.47687981730688,29.07538536849245 L45.98000416631946,29.200333291669146 A16,16,0,0,0,41.31370849898476,18.68629150101524" fill="#F1C40F" opacity="0.66"/><path d="M41.31370849898476,41.31370849898476 L43.08147545195113,43.08147545195113 A18.5,18.5,0,0,1,30.924614631507552,48.47687981730688 L30.799666708330854,45.98000416631946 A16,16,0,0,0,41.31370849898476,41.31370849898476" fill="#F1C40F" opacity="0.66"/><path d="M30,11 L30,8.5 A21.5,21.5,0,0,1,44.42397315504649,14.05638063605073 L42.74676697422713,15.910289864416924 A19,19,0,0,0,30,11" fill="#F1C40F" opacity="0.7"/><path d="M43.435028842544405,43.4350288425444 L45.202795795510774,45.20279579551077 A21.5,21.5,0,0,1,31.074552139319586,51.47313059849178 L30.94960421614289,48.97625494750436 A19,19,0,0,0,43.435028842544405,43.4350288425444" fill="#F1C40F" opacity="0.7"/><path d="M16.564971157455595,16.5649711574556 L14.797204204489224,14.79720420448923 A21.5,21.5,0,0,1,28.925447860680414,8.526869401508225 L29.050395783857113,11.023745052495642 A19,19,0,0,0,16.564971157455595,16.5649711574556" fill="#F1C40F" opacity="0.7"/><path d="M30,8 L30,5.5 A24.5,24.5,0,0,1,46.436620572029724,11.831689562011295 L44.75941439121036,13.68559879037749 A22,22,0,0,0,30,8" fill="#F1C40F" opacity="0.74"/><path d="M52,30 L54.5,30 A24.5,24.5,0,0,1,48.16831043798871,46.436620572029724 L46.31440120962252,44.75941439121036 A22,22,0,0,0,52,30" fill="#F1C40F" opacity="0.74"/><path d="M8,30.000000000000004 L5.5,30.000000000000004 A24.5,24.5,0,0,1,11.831689562011295,13.563379427970276 L13.68559879037749,15.240585608789637 A22,22,0,0,0,8,30.000000000000004" fill="#F1C40F" opacity="0.74"/><path d="M47.67766952966369,12.322330470336315 L49.44543648263006,10.554563517369946 A27.5,27.5,0,0,1,57.465632160861574,28.625572845056347 L54.968756509874154,28.75052076823304 A25,25,0,0,0,47.67766952966369,12.322330470336315" fill="#F1C40F" opacity="0.78"/><path d="M12.322330470336315,47.67766952966369 L10.554563517369946,49.44543648263006 A27.5,27.5,0,0,1,2.534367839138426,31.374427154943653 L5.031243490125842,31.24947923176696 A25,25,0,0,0,12.322330470336315,47.67766952966369" fill="#F1C40F" opacity="0.78"/><path d="M5,30.000000000000004 L2.5,30.000000000000004 A27.5,27.5,0,0,1,9.606998487971865,11.550732010987048 L11.460907716338056,13.227938191806405 A25,25,0,0,0,5,30.000000000000004" fill="#F1C40F" opacity="0.78"/><polygon points="30,26 26.56,32 33.44,32" fill="#F1C40F" opacity="0.9"/></svg></g><g transform="translate(0,380)"><svg xmlns="http://www.w3.org/2000/svg" width="60" height="60" viewBox="0 0 60 60" style="flex-shrink: 0;"><circle cx="30" cy="30" r="28" fill="#080814" stroke="#F1C40F" stroke-width="0.5" opacity="0.2"/><path d="M30,37 L30,39.5 A9.5,9.5,0,0,1,23.626616512886432,37.04485506779154 L25.303822693705794,35.190945839425346 A7,7,0,0,0,30,37" fill="#F1C40F" opacity="0.54"/><path d="M23,30 L20.5,30 A9.5,9.5,0,0,1,22.955144932208462,23.626616512886436 L24.809054160574657,25.303822693705794 A7,7,0,0,0,23,30" fill="#F1C40F" opacity="0.54"/><path d="M40,30 L42.5,30 A12.5,12.5,0,0,1,39.26954614183097,38.3860309040968 L37.41563691346478,36.70882472327744 A10,10,0,0,0,40,30" fill="#F1C40F" opacity="0.58"/><path d="M37.071067811865476,37.071067811865476 L38.838834764831844,38.838834764831844 A12.5,12.5,0,0,1,30.62473961588348,42.48437825493708 L30.499791692706783,39.987502603949665 A10,10,0,0,0,37.071067811865476,37.071067811865476" fill="#F1C40F" opacity="0.58"/><path d="M39.19238815542512,20.807611844574883 L40.96015510839149,19.039844891608514 A15.5,15.5,0,0,1,45.480629036121975,29.225322876304485 L42.98375338513456,29.35027079948118 A13,13,0,0,0,39.19238815542512,20.807611844574883" fill="#F1C40F" opacity="0.62"/><path d="M43,30 L45.5,30 A15.5,15.5,0,0,1,41.494237215870406,40.39867832108003 L39.64032798750421,38.72147214026067 A13,13,0,0,0,43,30" fill="#F1C40F" opacity="0.62"/><path d="M20.80761184457488,20.807611844574883 L19.03984489160851,19.039844891608514 A15.5,15.5,0,0,1,29.225322876304485,14.519370963878023 L29.35027079948118,17.016246614865437 A13,13,0,0,0,20.80761184457488,20.807611844574883" fill="#F1C40F" opacity="0.62"/><path d="M30,14 L30,11.5 A18.5,18.5,0,0,1,42.41132573806326,16.28107171009016 L40.7341195572439,18.13498093845636 A16,16,0,0,0,30,14" fill="#F1C40F" opacity="0.66"/><path d="M41.31370849898476,41.31370849898476 L43.08147545195113,43.08147545195113 A18.5,18.5,0,0,1,30.924614631507552,48.47687981730688 L30.799666708330854,45.98000416631946 A16,16,0,0,0,41.31370849898476,41.31370849898476" fill="#F1C40F" opacity="0.66"/><path d="M18.68629150101524,41.31370849898476 L16.91852454804887,43.08147545195113 A18.5,18.5,0,0,1,11.523120182693123,30.92461463150755 L14.01999583368054,30.799666708330854 A16,16,0,0,0,18.68629150101524,41.31370849898476" fill="#F1C40F" opacity="0.66"/><path d="M14,30.000000000000004 L11.5,30.000000000000004 A18.5,18.5,0,0,1,16.28107171009016,17.588674261936738 L18.13498093845636,19.2658804427561 A16,16,0,0,0,14,30.000000000000004" fill="#F1C40F" opacity="0.66"/><path d="M18.686291501015237,18.68629150101524 L16.918524548048868,16.91852454804887 A18.5,18.5,0,0,1,29.07538536849245,11.523120182693123 L29.200333291669146,14.01999583368054 A16,16,0,0,0,18.686291501015237,18.68629150101524" fill="#F1C40F" opacity="0.66"/><path d="M30,11 L30,8.5 A21.5,21.5,0,0,1,44.42397315504649,14.05638063605073 L42.74676697422713,15.910289864416924 A19,19,0,0,0,30,11" fill="#F1C40F" opacity="0.7"/><path d="M43.435028842544405,43.4350288425444 L45.202795795510774,45.20279579551077 A21.5,21.5,0,0,1,31.074552139319586,51.47313059849178 L30.94960421614289,48.97625494750436 A19,19,0,0,0,43.435028842544405,43.4350288425444" fill="#F1C40F" opacity="0.7"/><path d="M11,30.000000000000004 L8.5,30.000000000000004 A21.5,21.5,0,0,1,14.05638063605073,15.576026844953509 L15.910289864416924,17.253233025772868 A19,19,0,0,0,11,30.000000000000004" fill="#F1C40F" opacity="0.7"/><path d="M45.55634918610404,14.443650813895957 L47.32411613907041,12.675883860929588 A24.5,24.5,0,0,1,54.469381379676676,28.77551035286838 L51.972505728689256,28.900458276045075 A22,22,0,0,0,45.55634918610404,14.443650813895957" fill="#F1C40F" opacity="0.74"/><path d="M52,30 L54.5,30 A24.5,24.5,0,0,1,48.16831043798871,46.436620572029724 L46.31440120962252,44.75941439121036 A22,22,0,0,0,52,30" fill="#F1C40F" opacity="0.74"/><path d="M14.443650813895951,14.443650813895957 L12.67588386092958,12.675883860929588 A24.5,24.5,0,0,1,28.77551035286838,5.530618620323327 L28.900458276045075,8.027494271310744 A22,22,0,0,0,14.443650813895951,14.443650813895957" fill="#F1C40F" opacity="0.74"/><path d="M30,5 L30,2.5 A27.5,27.5,0,0,1,48.44926798901295,9.606998487971865 L46.7720618081936,11.460907716338056 A25,25,0,0,0,30,5" fill="#F1C40F" opacity="0.78"/><path d="M55,30 L57.5,30 A27.5,27.5,0,0,1,50.393001512028135,48.44926798901295 L48.539092283661944,46.7720618081936 A25,25,0,0,0,55,30" fill="#F1C40F" opacity="0.78"/><path d="M47.67766952966369,47.67766952966369 L49.44543648263006,49.44543648263006 A27.5,27.5,0,0,1,31.374427154943657,57.465632160861574 L31.249479231766962,54.968756509874154 A25,25,0,0,0,47.67766952966369,47.67766952966369" fill="#F1C40F" opacity="0.78"/><path d="M30,55 L30,57.5 A27.5,27.5,0,0,1,11.550732010987044,50.393001512028135 L13.227938191806402,48.539092283661944 A25,25,0,0,0,30,55" fill="#F1C40F" opacity="0.78"/><path d="M12.322330470336315,47.67766952966369 L10.554563517369946,49.44543648263006 A27.5,27.5,0,0,1,2.534367839138426,31.374427154943653 L5.031243490125842,31.24947923176696 A25,25,0,0,0,12.322330470336315,47.67766952966369" fill="#F1C40F" opacity="0.78"/><polygon points="30,26 26.56,32 33.44,32" fill="#F1C40F" opacity="0.9"/></svg></g><g transform="translate(0,456)"><svg xmlns="http://www.w3.org/2000/svg" width="60" height="60" viewBox="0 0 60 60" style="flex-shrink: 0;"><circle cx="30" cy="30" r="28" fill="#080814" stroke="#3498DB" stroke-width="0.5" opacity="0.2"/><path d="M25.05025253169417,34.94974746830583 L23.2824855787278,36.7175144212722 A9.5,9.5,0,0,1,20.51187252624782,30.474802108071444 L23.008748177235237,30.34985418489475 A7,7,0,0,0,25.05025253169417,34.94974746830583" fill="#3498DB" opacity="0.54"/><path d="M23,30 L20.5,30 A9.5,9.5,0,0,1,22.955144932208462,23.626616512886436 L24.809054160574657,25.303822693705794 A7,7,0,0,0,23,30" fill="#3498DB" opacity="0.54"/><path d="M30,20 L30,17.5 A12.5,12.5,0,0,1,38.3860309040968,20.730453858169028 L36.70882472327744,22.584363086535223 A10,10,0,0,0,30,20" fill="#3498DB" opacity="0.58"/><path d="M37.071067811865476,22.928932188134524 L38.838834764831844,21.161165235168156 A12.5,12.5,0,0,1,42.48437825493708,29.375260384116523 L39.987502603949665,29.500208307293217 A10,10,0,0,0,37.071067811865476,22.928932188134524" fill="#3498DB" opacity="0.58"/><path d="M40,30 L42.5,30 A12.5,12.5,0,0,1,39.26954614183097,38.3860309040968 L37.41563691346478,36.70882472327744 A10,10,0,0,0,40,30" fill="#3498DB" opacity="0.58"/><path d="M20,30 L17.5,30 A12.5,12.5,0,0,1,20.730453858169028,21.6139690959032 L22.584363086535223,23.291175276722562 A10,10,0,0,0,20,30" fill="#3498DB" opacity="0.58"/><path d="M22.928932188134524,22.928932188134524 L21.161165235168156,21.161165235168156 A12.5,12.5,0,0,1,29.375260384116523,17.515621745062923 L29.500208307293217,20.012497396050335 A10,10,0,0,0,22.928932188134524,22.928932188134524" fill="#3498DB" opacity="0.58"/><path d="M30,17 L30,14.5 A15.5,15.5,0,0,1,40.39867832108003,18.505762784129594 L38.72147214026067,20.35967201249579 A13,13,0,0,0,30,17" fill="#3498DB" opacity="0.62"/><path d="M39.19238815542512,20.807611844574883 L40.96015510839149,19.039844891608514 A15.5,15.5,0,0,1,45.480629036121975,29.225322876304485 L42.98375338513456,29.35027079948118 A13,13,0,0,0,39.19238815542512,20.807611844574883" fill="#3498DB" opacity="0.62"/><path d="M39.19238815542512,39.19238815542512 L40.96015510839149,40.96015510839149 A15.5,15.5,0,0,1,30.774677123695515,45.480629036121975 L30.64972920051882,42.98375338513456 A13,13,0,0,0,39.19238815542512,39.19238815542512" fill="#3498DB" opacity="0.62"/><path d="M20.807611844574883,39.19238815542512 L19.039844891608514,40.96015510839149 A15.5,15.5,0,0,1,14.519370963878023,30.774677123695515 L17.016246614865437,30.649729200518816 A13,13,0,0,0,20.807611844574883,39.19238815542512" fill="#3498DB" opacity="0.62"/><path d="M17,30 L14.5,30.000000000000004 A15.5,15.5,0,0,1,18.505762784129594,19.601321678919973 L20.35967201249579,21.27852785973933 A13,13,0,0,0,17,30" fill="#3498DB" opacity="0.62"/><path d="M30,14 L30,11.5 A18.5,18.5,0,0,1,42.41132573806326,16.28107171009016 L40.7341195572439,18.13498093845636 A16,16,0,0,0,30,14" fill="#3498DB" opacity="0.66"/><path d="M41.31370849898476,18.68629150101524 L43.08147545195113,16.91852454804887 A18.5,18.5,0,0,1,48.47687981730688,29.07538536849245 L45.98000416631946,29.200333291669146 A16,16,0,0,0,41.31370849898476,18.68629150101524" fill="#3498DB" opacity="0.66"/><path d="M46,30 L48.5,30 A18.5,18.5,0,0,1,43.71892828990984,42.41132573806326 L41.86501906154365,40.7341195572439 A16,16,0,0,0,46,30" fill="#3498DB" opacity="0.66"/><path d="M41.31370849898476,41.31370849898476 L43.08147545195113,43.08147545195113 A18.5,18.5,0,0,1,30.924614631507552,48.47687981730688 L30.799666708330854,45.98000416631946 A16,16,0,0,0,41.31370849898476,41.31370849898476" fill="#3498DB" opacity="0.66"/><path d="M30,46 L30,48.5 A18.5,18.5,0,0,1,17.588674261936738,43.71892828990984 L19.2658804427561,41.86501906154364 A16,16,0,0,0,30,46" fill="#3498DB" opacity="0.66"/><path d="M14,30.000000000000004 L11.5,30.000000000000004 A18.5,18.5,0,0,1,16.28107171009016,17.588674261936738 L18.13498093845636,19.2658804427561 A16,16,0,0,0,14,30.000000000000004" fill="#3498DB" opacity="0.66"/><path d="M18.686291501015237,18.68629150101524 L16.918524548048868,16.91852454804887 A18.5,18.5,0,0,1,29.07538536849245,11.523120182693123 L29.200333291669146,14.01999583368054 A16,16,0,0,0,18.686291501015237,18.68629150101524" fill="#3498DB" opacity="0.66"/><path d="M43.435028842544405,16.5649711574556 L45.202795795510774,14.79720420448923 A21.5,21.5,0,0,1,51.47313059849178,28.925447860680414 L48.97625494750436,29.050395783857113 A19,19,0,0,0,43.435028842544405,16.5649711574556" fill="#3498DB" opacity="0.7"/><path d="M30,49 L30,51.5 A21.5,21.5,0,0,1,15.576026844953507,45.94361936394927 L17.253233025772865,44.089710135583076 A19,19,0,0,0,30,49" fill="#3498DB" opacity="0.7"/><path d="M16.5649711574556,43.435028842544405 L14.79720420448923,45.202795795510774 A21.5,21.5,0,0,1,8.526869401508225,31.074552139319582 L11.023745052495642,30.949604216142887 A19,19,0,0,0,16.5649711574556,43.435028842544405" fill="#3498DB" opacity="0.7"/><path d="M11,30.000000000000004 L8.5,30.000000000000004 A21.5,21.5,0,0,1,14.05638063605073,15.576026844953509 L15.910289864416924,17.253233025772868 A19,19,0,0,0,11,30.000000000000004" fill="#3498DB" opacity="0.7"/><path d="M45.55634918610404,14.443650813895957 L47.32411613907041,12.675883860929588 A24.5,24.5,0,0,1,54.469381379676676,28.77551035286838 L51.972505728689256,28.900458276045075 A22,22,0,0,0,45.55634918610404,14.443650813895957" fill="#3498DB" opacity="0.74"/><path d="M52,30 L54.5,30 A24.5,24.5,0,0,1,48.16831043798871,46.436620572029724 L46.31440120962252,44.75941439121036 A22,22,0,0,0,52,30" fill="#3498DB" opacity="0.74"/><path d="M30,52 L30,54.5 A24.5,24.5,0,0,1,13.563379427970276,48.16831043798871 L15.240585608789635,46.31440120962251 A22,22,0,0,0,30,52" fill="#3498DB" opacity="0.74"/><path d="M55,30 L57.5,30 A27.5,27.5,0,0,1,50.393001512028135,48.44926798901295 L48.539092283661944,46.7720618081936 A25,25,0,0,0,55,30" fill="#3498DB" opacity="0.78"/><path d="M30,55 L30,57.5 A27.5,27.5,0,0,1,11.550732010987044,50.393001512028135 L13.227938191806402,48.539092283661944 A25,25,0,0,0,30,55" fill="#3498DB" opacity="0.78"/><path d="M5,30.000000000000004 L2.5,30.000000000000004 A27.5,27.5,0,0,1,9.606998487971865,11.550732010987048 L11.460907716338056,13.227938191806405 A25,25,0,0,0,5,30.000000000000004" fill="#3498DB" opacity="0.78"/><rect x="26" y="26" width="8" height="8" fill="#3498DB" opacity="0.9"/></svg></g><g transform="translate(0,532)"><svg xmlns="http://www.w3.org/2000/svg" width="60" height="60" viewBox="0 0 60 60" style="flex-shrink: 0;"><circle cx="30" cy="30" r="28" fill="#080814" stroke="#E67E22" stroke-width="0.5" opacity="0.2"/><path d="M30,37 L30,39.5 A9.5,9.5,0,0,1,23.626616512886432,37.04485506779154 L25.303822693705794,35.190945839425346 A7,7,0,0,0,30,37" fill="#E67E22" opacity="0.54"/><path d="M30,40 L30,42.5 A12.5,12.5,0,0,1,21.6139690959032,39.26954614183097 L23.291175276722562,37.41563691346478 A10,10,0,0,0,30,40" fill="#E67E22" opacity="0.58"/><path d="M22.928932188134524,37.071067811865476 L21.161165235168156,38.838834764831844 A12.5,12.5,0,0,1,17.515621745062923,30.624739615883477 L20.012497396050335,30.499791692706783 A10,10,0,0,0,22.928932188134524,37.071067811865476" fill="#E67E22" opacity="0.58"/><path d="M30,17 L30,14.5 A15.5,15.5,0,0,1,40.39867832108003,18.505762784129594 L38.72147214026067,20.35967201249579 A13,13,0,0,0,30,17" fill="#E67E22" opacity="0.62"/><path d="M39.19238815542512,20.807611844574883 L40.96015510839149,19.039844891608514 A15.5,15.5,0,0,1,45.480629036121975,29.225322876304485 L42.98375338513456,29.35027079948118 A13,13,0,0,0,39.19238815542512,20.807611844574883" fill="#E67E22" opacity="0.62"/><path d="M39.19238815542512,39.19238815542512 L40.96015510839149,40.96015510839149 A15.5,15.5,0,0,1,30.774677123695515,45.480629036121975 L30.64972920051882,42.98375338513456 A13,13,0,0,0,39.19238815542512,39.19238815542512" fill="#E67E22" opacity="0.62"/><path d="M30,43 L30,45.5 A15.5,15.5,0,0,1,19.60132167891997,41.494237215870406 L21.278527859739327,39.64032798750421 A13,13,0,0,0,30,43" fill="#E67E22" opacity="0.62"/><path d="M20.80761184457488,20.807611844574883 L19.03984489160851,19.039844891608514 A15.5,15.5,0,0,1,29.225322876304485,14.519370963878023 L29.35027079948118,17.016246614865437 A13,13,0,0,0,20.80761184457488,20.807611844574883" fill="#E67E22" opacity="0.62"/><path d="M30,14 L30,11.5 A18.5,18.5,0,0,1,42.41132573806326,16.28107171009016 L40.7341195572439,18.13498093845636 A16,16,0,0,0,30,14" fill="#E67E22" opacity="0.66"/><path d="M41.31370849898476,41.31370849898476 L43.08147545195113,43.08147545195113 A18.5,18.5,0,0,1,30.924614631507552,48.47687981730688 L30.799666708330854,45.98000416631946 A16,16,0,0,0,41.31370849898476,41.31370849898476" fill="#E67E22" opacity="0.66"/><path d="M18.68629150101524,41.31370849898476 L16.91852454804887,43.08147545195113 A18.5,18.5,0,0,1,11.523120182693123,30.92461463150755 L14.01999583368054,30.799666708330854 A16,16,0,0,0,18.68629150101524,41.31370849898476" fill="#E67E22" opacity="0.66"/><path d="M14,30.000000000000004 L11.5,30.000000000000004 A18.5,18.5,0,0,1,16.28107171009016,17.588674261936738 L18.13498093845636,19.2658804427561 A16,16,0,0,0,14,30.000000000000004" fill="#E67E22" opacity="0.66"/><path d="M43.435028842544405,16.5649711574556 L45.202795795510774,14.79720420448923 A21.5,21.5,0,0,1,51.47313059849178,28.925447860680414 L48.97625494750436,29.050395783857113 A19,19,0,0,0,43.435028842544405,16.5649711574556" fill="#E67E22" opacity="0.7"/><path d="M30,49 L30,51.5 A21.5,21.5,0,0,1,15.576026844953507,45.94361936394927 L17.253233025772865,44.089710135583076 A19,19,0,0,0,30,49" fill="#E67E22" opacity="0.7"/><path d="M16.5649711574556,43.435028842544405 L14.79720420448923,45.202795795510774 A21.5,21.5,0,0,1,8.526869401508225,31.074552139319582 L11.023745052495642,30.949604216142887 A19,19,0,0,0,16.5649711574556,43.435028842544405" fill="#E67E22" opacity="0.7"/><path d="M30,8 L30,5.5 A24.5,24.5,0,0,1,46.436620572029724,11.831689562011295 L44.75941439121036,13.68559879037749 A22,22,0,0,0,30,8" fill="#E67E22" opacity="0.74"/><path d="M52,30 L54.5,30 A24.5,24.5,0,0,1,48.16831043798871,46.436620572029724 L46.31440120962252,44.75941439121036 A22,22,0,0,0,52,30" fill="#E67E22" opacity="0.74"/><path d="M30,52 L30,54.5 A24.5,24.5,0,0,1,13.563379427970276,48.16831043798871 L15.240585608789635,46.31440120962251 A22,22,0,0,0,30,52" fill="#E67E22" opacity="0.74"/><path d="M8,30.000000000000004 L5.5,30.000000000000004 A24.5,24.5,0,0,1,11.831689562011295,13.563379427970276 L13.68559879037749,15.240585608789637 A22,22,0,0,0,8,30.000000000000004" fill="#E67E22" opacity="0.74"/><path d="M14.443650813895951,14.443650813895957 L12.67588386092958,12.675883860929588 A24.5,24.5,0,0,1,28.77551035286838,5.530618620323327 L28.900458276045075,8.027494271310744 A22,22,0,0,0,14.443650813895951,14.443650813895957" fill="#E67E22" opacity="0.74"/><path d="M55,30 L57.5,30 A27.5,27.5,0,0,1,50.393001512028135,48.44926798901295 L48.539092283661944,46.7720618081936 A25,25,0,0,0,55,30" fill="#E67E22" opacity="0.78"/><path d="M47.67766952966369,47.67766952966369 L49.44543648263006,49.44543648263006 A27.5,27.5,0,0,1,31.374427154943657,57.465632160861574 L31.249479231766962,54.968756509874154 A25,25,0,0,0,47.67766952966369,47.67766952966369" fill="#E67E22" opacity="0.78"/><path d="M30,55 L30,57.5 A27.5,27.5,0,0,1,11.550732010987044,50.393001512028135 L13.227938191806402,48.539092283661944 A25,25,0,0,0,30,55" fill="#E67E22" opacity="0.78"/><path d="M12.322330470336315,47.67766952966369 L10.554563517369946,49.44543648263006 A27.5,27.5,0,0,1,2.534367839138426,31.374427154943653 L5.031243490125842,31.24947923176696 A25,25,0,0,0,12.322330470336315,47.67766952966369" fill="#E67E22" opacity="0.78"/><path d="M5,30.000000000000004 L2.5,30.000000000000004 A27.5,27.5,0,0,1,9.606998487971865,11.550732010987048 L11.460907716338056,13.227938191806405 A25,25,0,0,0,5,30.000000000000004" fill="#E67E22" opacity="0.78"/><path d="M12.322330470336308,12.322330470336315 L10.554563517369939,10.554563517369946 A27.5,27.5,0,0,1,28.625572845056347,2.534367839138426 L28.75052076823304,5.031243490125842 A25,25,0,0,0,12.322330470336308,12.322330470336315" fill="#E67E22" opacity="0.78"/><rect x="26" y="26" width="8" height="8" fill="#E67E22" opacity="0.9"/></svg></g><g transform="translate(0,608)"><svg xmlns="http://www.w3.org/2000/svg" width="60" height="60" viewBox="0 0 60 60" style="flex-shrink: 0;"><circle cx="30" cy="30" r="28" fill="#080814" stroke="#E74C3C" stroke-width="0.5" opacity="0.2"/><path d="M30,26 L30,23.5 A6.5,6.5,0,0,1,34.360736070130336,25.179836006247896 L32.683529889310975,27.033745234614088 A4,4,0,0,0,30,26" fill="#E74C3C" opacity="0.5"/><path d="M32.82842712474619,27.17157287525381 L34.59619407771256,25.40380592228744 A6.5,6.5,0,0,1,36.49187669256728,29.67513539974059 L33.99500104157987,29.80008332291729 A4,4,0,0,0,32.82842712474619,27.17157287525381" fill="#E74C3C" opacity="0.5"/><path d="M32.82842712474619,32.82842712474619 L34.59619407771256,34.59619407771256 A6.5,6.5,0,0,1,30.32486460025941,36.49187669256728 L30.199916677082715,33.99500104157987 A4,4,0,0,0,32.82842712474619,32.82842712474619" fill="#E74C3C" opacity="0.5"/><path d="M30,34 L30,36.5 A6.5,6.5,0,0,1,25.639263929869664,34.820163993752104 L27.316470110689025,32.96625476538591 A4,4,0,0,0,30,34" fill="#E74C3C" opacity="0.5"/><path d="M27.17157287525381,32.82842712474619 L25.40380592228744,34.59619407771256 A6.5,6.5,0,0,1,23.50812330743272,30.32486460025941 L26.004998958420135,30.19991667708271 A4,4,0,0,0,27.17157287525381,32.82842712474619" fill="#E74C3C" opacity="0.5"/><path d="M26,30 L23.5,30 A6.5,6.5,0,0,1,25.179836006247896,25.639263929869664 L27.033745234614088,27.316470110689025 A4,4,0,0,0,26,30" fill="#E74C3C" opacity="0.5"/><path d="M30,23 L30,20.5 A9.5,9.5,0,0,1,36.373383487113564,22.955144932208462 L34.6961773062942,24.809054160574657 A7,7,0,0,0,30,23" fill="#E74C3C" opacity="0.54"/><path d="M37,30 L39.5,30 A9.5,9.5,0,0,1,37.04485506779154,36.373383487113564 L35.190945839425346,34.6961773062942 A7,7,0,0,0,37,30" fill="#E74C3C" opacity="0.54"/><path d="M30,37 L30,39.5 A9.5,9.5,0,0,1,23.626616512886432,37.04485506779154 L25.303822693705794,35.190945839425346 A7,7,0,0,0,30,37" fill="#E74C3C" opacity="0.54"/><path d="M25.05025253169417,34.94974746830583 L23.2824855787278,36.7175144212722 A9.5,9.5,0,0,1,20.51187252624782,30.474802108071444 L23.008748177235237,30.34985418489475 A7,7,0,0,0,25.05025253169417,34.94974746830583" fill="#E74C3C" opacity="0.54"/><path d="M25.050252531694166,25.05025253169417 L23.282485578727798,23.2824855787278 A9.5,9.5,0,0,1,29.525197891928556,20.51187252624782 L29.65014581510525,23.008748177235237 A7,7,0,0,0,25.050252531694166,25.05025253169417" fill="#E74C3C" opacity="0.54"/><path d="M30,20 L30,17.5 A12.5,12.5,0,0,1,38.3860309040968,20.730453858169028 L36.70882472327744,22.584363086535223 A10,10,0,0,0,30,20" fill="#E74C3C" opacity="0.58"/><path d="M40,30 L42.5,30 A12.5,12.5,0,0,1,39.26954614183097,38.3860309040968 L37.41563691346478,36.70882472327744 A10,10,0,0,0,40,30" fill="#E74C3C" opacity="0.58"/><path d="M37.071067811865476,37.071067811865476 L38.838834764831844,38.838834764831844 A12.5,12.5,0,0,1,30.62473961588348,42.48437825493708 L30.499791692706783,39.987502603949665 A10,10,0,0,0,37.071067811865476,37.071067811865476" fill="#E74C3C" opacity="0.58"/><path d="M30,40 L30,42.5 A12.5,12.5,0,0,1,21.6139690959032,39.26954614183097 L23.291175276722562,37.41563691346478 A10,10,0,0,0,30,40" fill="#E74C3C" opacity="0.58"/><path d="M22.928932188134524,37.071067811865476 L21.161165235168156,38.838834764831844 A12.5,12.5,0,0,1,17.515621745062923,30.624739615883477 L20.012497396050335,30.499791692706783 A10,10,0,0,0,22.928932188134524,37.071067811865476" fill="#E74C3C" opacity="0.58"/><path d="M20,30 L17.5,30 A12.5,12.5,0,0,1,20.730453858169028,21.6139690959032 L22.584363086535223,23.291175276722562 A10,10,0,0,0,20,30" fill="#E74C3C" opacity="0.58"/><path d="M30,17 L30,14.5 A15.5,15.5,0,0,1,40.39867832108003,18.505762784129594 L38.72147214026067,20.35967201249579 A13,13,0,0,0,30,17" fill="#E74C3C" opacity="0.62"/><path d="M39.19238815542512,20.807611844574883 L40.96015510839149,19.039844891608514 A15.5,15.5,0,0,1,45.480629036121975,29.225322876304485 L42.98375338513456,29.35027079948118 A13,13,0,0,0,39.19238815542512,20.807611844574883" fill="#E74C3C" opacity="0.62"/><path d="M43,30 L45.5,30 A15.5,15.5,0,0,1,41.494237215870406,40.39867832108003 L39.64032798750421,38.72147214026067 A13,13,0,0,0,43,30" fill="#E74C3C" opacity="0.62"/><path d="M30,43 L30,45.5 A15.5,15.5,0,0,1,19.60132167891997,41.494237215870406 L21.278527859739327,39.64032798750421 A13,13,0,0,0,30,43" fill="#E74C3C" opacity="0.62"/><path d="M20.807611844574883,39.19238815542512 L19.039844891608514,40.96015510839149 A15.5,15.5,0,0,1,14.519370963878023,30.774677123695515 L17.016246614865437,30.649729200518816 A13,13,0,0,0,20.807611844574883,39.19238815542512" fill="#E74C3C" opacity="0.62"/><path d="M17,30 L14.5,30.000000000000004 A15.5,15.5,0,0,1,18.505762784129594,19.601321678919973 L20.35967201249579,21.27852785973933 A13,13,0,0,0,17,30" fill="#E74C3C" opacity="0.62"/><path d="M20.80761184457488,20.807611844574883 L19.03984489160851,19.039844891608514 A15.5,15.5,0,0,1,29.225322876304485,14.519370963878023 L29.35027079948118,17.016246614865437 A13,13,0,0,0,20.80761184457488,20.807611844574883" fill="#E74C3C" opacity="0.62"/><path d="M30,14 L30,11.5 A18.5,18.5,0,0,1,42.41132573806326,16.28107171009016 L40.7341195572439,18.13498093845636 A16,16,0,0,0,30,14" fill="#E74C3C" opacity="0.66"/><path d="M41.31370849898476,18.68629150101524 L43.08147545195113,16.91852454804887 A18.5,18.5,0,0,1,48.47687981730688,29.07538536849245 L45.98000416631946,29.200333291669146 A16,16,0,0,0,41.31370849898476,18.68629150101524" fill="#E74C3C" opacity="0.66"/><path d="M30,46 L30,48.5 A18.5,18.5,0,0,1,17.588674261936738,43.71892828990984 L19.2658804427561,41.86501906154364 A16,16,0,0,0,30,46" fill="#E74C3C" opacity="0.66"/><path d="M14,30.000000000000004 L11.5,30.000000000000004 A18.5,18.5,0,0,1,16.28107171009016,17.588674261936738 L18.13498093845636,19.2658804427561 A16,16,0,0,0,14,30.000000000000004" fill="#E74C3C" opacity="0.66"/><path d="M30,11 L30,8.5 A21.5,21.5,0,0,1,44.42397315504649,14.05638063605073 L42.74676697422713,15.910289864416924 A19,19,0,0,0,30,11" fill="#E74C3C" opacity="0.7"/><path d="M43.435028842544405,16.5649711574556 L45.202795795510774,14.79720420448923 A21.5,21.5,0,0,1,51.47313059849178,28.925447860680414 L48.97625494750436,29.050395783857113 A19,19,0,0,0,43.435028842544405,16.5649711574556" fill="#E74C3C" opacity="0.7"/><path d="M49,30 L51.5,30 A21.5,21.5,0,0,1,45.943619363949274,44.42397315504649 L44.089710135583076,42.74676697422713 A19,19,0,0,0,49,30" fill="#E74C3C" opacity="0.7"/><path d="M43.435028842544405,43.4350288425444 L45.202795795510774,45.20279579551077 A21.5,21.5,0,0,1,31.074552139319586,51.47313059849178 L30.94960421614289,48.97625494750436 A19,19,0,0,0,43.435028842544405,43.4350288425444" fill="#E74C3C" opacity="0.7"/><path d="M30,49 L30,51.5 A21.5,21.5,0,0,1,15.576026844953507,45.94361936394927 L17.253233025772865,44.089710135583076 A19,19,0,0,0,30,49" fill="#E74C3C" opacity="0.7"/><path d="M16.5649711574556,43.435028842544405 L14.79720420448923,45.202795795510774 A21.5,21.5,0,0,1,8.526869401508225,31.074552139319582 L11.023745052495642,30.949604216142887 A19,19,0,0,0,16.5649711574556,43.435028842544405" fill="#E74C3C" opacity="0.7"/><path d="M11,30.000000000000004 L8.5,30.000000000000004 A21.5,21.5,0,0,1,14.05638063605073,15.576026844953509 L15.910289864416924,17.253233025772868 A19,19,0,0,0,11,30.000000000000004" fill="#E74C3C" opacity="0.7"/><path d="M30,8 L30,5.5 A24.5,24.5,0,0,1,46.436620572029724,11.831689562011295 L44.75941439121036,13.68559879037749 A22,22,0,0,0,30,8" fill="#E74C3C" opacity="0.74"/><path d="M52,30 L54.5,30 A24.5,24.5,0,0,1,48.16831043798871,46.436620572029724 L46.31440120962252,44.75941439121036 A22,22,0,0,0,52,30" fill="#E74C3C" opacity="0.74"/><path d="M45.55634918610404,45.55634918610404 L47.32411613907041,47.32411613907041 A24.5,24.5,0,0,1,31.224489647131623,54.469381379676676 L31.099541723954925,51.972505728689256 A22,22,0,0,0,45.55634918610404,45.55634918610404" fill="#E74C3C" opacity="0.74"/><path d="M30,52 L30,54.5 A24.5,24.5,0,0,1,13.563379427970276,48.16831043798871 L15.240585608789635,46.31440120962251 A22,22,0,0,0,30,52" fill="#E74C3C" opacity="0.74"/><path d="M8,30.000000000000004 L5.5,30.000000000000004 A24.5,24.5,0,0,1,11.831689562011295,13.563379427970276 L13.68559879037749,15.240585608789637 A22,22,0,0,0,8,30.000000000000004" fill="#E74C3C" opacity="0.74"/><path d="M30,5 L30,2.5 A27.5,27.5,0,0,1,48.44926798901295,9.606998487971865 L46.7720618081936,11.460907716338056 A25,25,0,0,0,30,5" fill="#E74C3C" opacity="0.78"/><path d="M55,30 L57.5,30 A27.5,27.5,0,0,1,50.393001512028135,48.44926798901295 L48.539092283661944,46.7720618081936 A25,25,0,0,0,55,30" fill="#E74C3C" opacity="0.78"/><path d="M47.67766952966369,47.67766952966369 L49.44543648263006,49.44543648263006 A27.5,27.5,0,0,1,31.374427154943657,57.465632160861574 L31.249479231766962,54.968756509874154 A25,25,0,0,0,47.67766952966369,47.67766952966369" fill="#E74C3C" opacity="0.78"/><path d="M30,55 L30,57.5 A27.5,27.5,0,0,1,11.550732010987044,50.393001512028135 L13.227938191806402,48.539092283661944 A25,25,0,0,0,30,55" fill="#E74C3C" opacity="0.78"/><path d="M12.322330470336315,47.67766952966369 L10.554563517369946,49.44543648263006 A27.5,27.5,0,0,1,2.534367839138426,31.374427154943653 L5.031243490125842,31.24947923176696 A25,25,0,0,0,12.322330470336315,47.67766952966369" fill="#E74C3C" opacity="0.78"/><path d="M5,30.000000000000004 L2.5,30.000000000000004 A27.5,27.5,0,0,1,9.606998487971865,11.550732010987048 L11.460907716338056,13.227938191806405 A25,25,0,0,0,5,30.000000000000004" fill="#E74C3C" opacity="0.78"/><circle cx="30" cy="30" r="4" fill="#E74C3C" opacity="0.9"/></svg></g></svg>